<svg width="220" height="59" viewBox="0 0 220 59" fill="none" xmlns="http://www.w3.org/2000/svg">
<path d="M83.6776 19.1248C80.1622 19.1248 78.4194 20.4468 77.1575 22.2797C75.8955 20.0262 73.7021 19.1248 71.4185 19.1248C69.135 19.1248 67.0618 20.2065 65.92 22.1896L65.4392 19.6356H61.7435V39.5266H65.9801V27.8384C66.2505 24.5032 67.8129 22.7605 70.3669 22.7605C73.0711 22.7605 74.1828 24.9839 74.1828 28.229V39.5266H78.4194V28.86C78.4194 24.9539 80.0119 22.7605 82.7762 22.7605C85.5105 22.7605 86.6222 24.9839 86.6222 28.1989V39.5266H90.8588V27.8985C90.8588 21.4083 87.4635 19.1248 83.6776 19.1248ZM98.4607 15.8196C99.9931 15.8196 101.195 14.6178 101.195 13.1154C101.195 11.6131 99.9931 10.4112 98.4607 10.4112C96.9583 10.4112 95.7264 11.6131 95.7264 13.1154C95.7264 14.6178 96.9583 15.8196 98.4607 15.8196ZM96.4475 39.5266H100.594V19.6356H96.4475V39.5266ZM116.759 19.1248C113.965 19.1248 111.862 20.2966 110.63 22.0093L110.089 19.6356H106.393V39.5266H110.63V27.3877C110.99 23.9022 113.334 22.7605 115.587 22.7605C118.652 22.7605 119.974 24.9539 119.974 28.1989V39.5266H124.211V27.2374C124.211 21.0478 120.215 19.1248 116.759 19.1248ZM148.188 29.1604C148.188 23.2412 144.192 19.1248 138.423 19.1248C132.444 19.1248 128.147 23.722 128.147 29.5811C128.147 35.4703 132.414 40.0073 138.934 40.0073C142.359 40.0073 145.244 38.8355 147.046 36.8224L144.102 34.4487C142.84 35.8909 141.127 36.6421 138.904 36.6421C135.178 36.6421 132.924 34.0581 132.624 30.5125H148.188V29.1604ZM138.423 22.5501C141.518 22.5501 143.531 24.413 143.982 27.5679H132.804C133.405 24.5633 135.478 22.5501 138.423 22.5501ZM163.302 19.1248C160.327 19.1248 158.043 20.3567 156.451 22.3098L156.121 19.6356H152.395V48.7509H156.631V37.0327C158.164 38.8956 160.417 40.0073 163.302 40.0073C168.47 40.0073 172.586 36.0712 172.586 29.5811C172.586 23.121 168.47 19.1248 163.302 19.1248ZM162.28 36.4317C158.554 36.4317 156.151 33.4872 156.151 29.5811C156.151 25.705 158.554 22.7004 162.28 22.7004C165.886 22.7004 168.259 25.705 168.259 29.5811C168.259 33.4872 165.886 36.4317 162.28 36.4317ZM192.447 19.6356L191.876 22.3999C190.344 20.3868 188 19.1248 184.935 19.1248C179.767 19.1248 175.651 23.121 175.651 29.5811C175.651 36.0712 179.767 40.0073 184.935 40.0073C187.97 40.0073 190.284 38.7454 191.816 36.7322L192.447 39.5266H195.933V19.6356H192.447ZM185.957 36.4317C182.351 36.4317 180.008 33.4872 180.008 29.5811C180.008 25.705 182.351 22.7004 185.957 22.7004C189.683 22.7004 192.087 25.705 192.087 29.5811C192.087 33.4872 189.683 36.4317 185.957 36.4317ZM220 39.5266L209.303 28.6797L218.768 19.6356H213.209L205.457 27.1773V9.75018H201.191V39.5266H205.457V30.2421L214.351 39.5266H220Z" fill="white"/>
<path d="M24.3717 0L0 14.6251V43.8767L24.3717 58.5011L48.7435 43.8773V14.6251L24.3717 0ZM24.3717 4.78948L31.2122 8.89465L12.4143 19.6063L6.01316 15.8079L24.3717 4.78948ZM22.5554 52.6199L3.9934 41.4813V19.386L10.156 23.0428V29.2509L13.8167 31.3818V25.2153L22.556 30.4011L22.5554 52.6199ZM16.2225 21.8659L34.8085 11.0528L42.7998 15.8488L24.5751 26.823L16.2225 21.8659ZM44.7527 41.4806L26.5462 52.4054V30.4317L44.7527 19.4672V41.4806Z" fill="white"/>
</svg>
